<svg id="Capa_1" enable-background="new 0 0 512 512" height="512" viewBox="0 0 512 512" width="512" xmlns="http://www.w3.org/2000/svg"><g><path d="m497 153h-18v-113c0-22.056-17.944-40-40-40h-366c-22.056 0-40 17.944-40 40v113h-18c-8.284 0-15 6.716-15 15s6.716 15 15 15h18v314c0 8.284 6.716 15 15 15h88c8.284 0 15-6.716 15-15v-50h210v50c0 8.284 6.716 15 15 15h88c8.284 0 15-6.716 15-15 0-6.673 0-304.89 0-314h18c8.284 0 15-6.716 15-15s-6.716-15-15-15zm-434 264v-146h386v146c-3.466 0-377.706 0-386 0zm0-306h178v130h-81.459l39.167-19.583c7.41-3.705 10.413-12.715 6.708-20.125-3.704-7.41-12.713-10.415-20.124-6.708l-92.833 46.416h-29.459zm386 0v130h-81.459l39.167-19.583c7.41-3.705 10.413-12.715 6.708-20.125-3.704-7.41-12.713-10.415-20.124-6.708l-92.833 46.416h-29.459v-130zm-376-81h366c5.514 0 10 4.486 10 10v41h-386v-41c0-5.514 4.486-10 10-10zm48 452h-58v-35h58zm328 0h-58v-35h58z"/><path d="m288 297h-64c-8.284 0-15 6.716-15 15s6.716 15 15 15h64c8.284 0 15-6.716 15-15s-6.716-15-15-15z"/><path d="m288 361h-64c-8.284 0-15 6.716-15 15s6.716 15 15 15h64c8.284 0 15-6.716 15-15s-6.716-15-15-15z"/><path d="m376 297c-25.916 0-47 21.084-47 47s21.084 47 47 47 47-21.084 47-47-21.084-47-47-47zm0 64c-9.374 0-17-7.626-17-17s7.626-17 17-17 17 7.626 17 17-7.626 17-17 17z"/><path d="m136 297c-25.916 0-47 21.084-47 47s21.084 47 47 47 47-21.084 47-47-21.084-47-47-47zm0 64c-9.374 0-17-7.626-17-17s7.626-17 17-17 17 7.626 17 17-7.626 17-17 17z"/></g></svg>