<svg id="Capa_1" enable-background="new 0 0 512.045 512.045" height="512" viewBox="0 0 512.045 512.045" width="512" xmlns="http://www.w3.org/2000/svg"><g><path d="m497.023 369.045h-69.289l-13.159-52.638c-1.669-6.678-7.669-11.362-14.552-11.362h-49.027c167.527-177.954 157.909-167.308 159.37-170.147 1.295-2.535 1.855-5.382 1.583-8.263-.254-2.71-1.241-4.729-1.167-4.559-.977-2.253 4.061 5.083-82.568-115.77-1.804-2.561-4.811-4.853-8.498-5.791-2.907-.731 19.014-.47-323.693-.47-4.844 0-9.478 2.409-12.191 6.261-85.423 119.17-82.034 113.93-83.07 117.116-1.219 3.748-.962 8.028 1.11 11.819 1.446 2.64-8.796-8.625 159.178 169.804h-49.027c-6.883 0-12.883 4.685-14.552 11.362l-13.159 52.638h-69.289c-8.284 0-15 6.716-15 15v113c0 8.284 6.716 15 15 15h482c8.284 0 15-6.716 15-15v-113c0-8.284-6.716-15-15-15zm-187.231-64h-13.366l50.625-162h115.25zm-62.741 0-50.625-162h119.193l-50.625 162zm8.972-264.04 51.002 72.04h-102.004zm108.998 72.04 51.078-72.147 51.716 72.147zm22.004-83-51.002 72.04-51.002-72.04zm-160 0-51.002 72.04-51.002-72.04zm-131.079 10.853 51.078 72.147h-102.793zm-46.202 102.147h115.25l50.625 162h-13.366zm73.991 192h264.576l8.5 34h-281.576zm358.288 147h-211v-26c0-8.284-6.716-15-15-15s-15 6.716-15 15v26h-211v-83h452z"/></g></svg>