<svg id="Capa_1" enable-background="new 0 0 512.003 512.003" height="512" viewBox="0 0 512.003 512.003" width="512" xmlns="http://www.w3.org/2000/svg"><g><path d="m503.8 138.582c-172.793-87.868-206.138-104.842-206.798-105.128-26.094-11.306-55.868-11.324-82.002 0-.653.283-35.872 18.224-206.803 105.213-6.074 3.091-9.301 9.89-7.854 16.551l31.769 146.331c-20.652 19.111-20.035 51.719 1.235 70.069 1.217 7.967 7.051 33.994 33.25 59.222 46.95 45.213 124.205 56.195 189.404 56.195 65.18 0 142.448-10.975 189.404-56.195 26.199-25.228 32.033-51.255 33.25-59.222 21.309-18.383 21.849-50.993 1.235-70.069l31.77-146.416c1.446-6.662-1.783-13.461-7.86-16.551zm-38.799 197.453c0 9.374-7.626 17-17 17h-384c-9.374 0-17-7.626-17-17s7.626-17 17-17h384c9.374 0 17 7.626 17 17zm-197.835-98.713c-6.57 4.777-15.579 4.91-22.33 0l-44.671-32.489c-8.186-5.953-11.276-16.674-7.51-26.093l17.51-43.968c59.428.126 33.247.124 91.672 0l17.518 43.989c3.759 9.398.668 20.119-7.518 26.072zm-207.072 51.713-27.98-128.878 195.222-99.351c4.427-1.886 9.008-3.305 13.666-4.276v48.309c-55.732-.118-37.079-.087-41-.087-6.141 0-11.663 3.744-13.936 9.45l-21.273 53.419c-8.862 22.159-1.572 47.438 17.729 61.475l44.671 32.489c4.296 3.124 8.961 5.469 13.81 7.035v20.416c-18.014-.001-161.915-.001-180.909-.001zm362.719 121.875c-22.869 21.042-70.373 46.125-166.812 46.125s-143.942-25.083-166.812-46.125c-10.894-10.023-17.297-19.964-21.046-27.875h375.715c-3.749 7.911-10.152 17.851-21.045 27.875zm-151.812-121.875v-20.415c4.849-1.567 9.514-3.911 13.81-7.036l44.671-32.488c19.301-14.037 26.591-39.316 17.736-61.455l-21.281-53.44c-2.272-5.707-7.795-9.45-13.936-9.45-3.856 0 13.898-.03-41 .087v-48.308c4.659.971 9.241 2.391 13.669 4.277l195.219 99.271-27.982 128.957c-18.994 0-162.975 0-180.906 0z"/><path d="m272.001 161.035h-32c-8.284 0-15 6.716-15 15s6.716 15 15 15h32c8.284 0 15-6.716 15-15s-6.716-15-15-15z"/></g></svg>